<svg xmlns="http://www.w3.org/2000/svg" viewBox="0 0 512 512"><clipPath id="c"><rect width="512" height="512" rx="96"/></clipPath><g clip-path="url(#c)"><rect width="512" height="512" fill="#14213D"/><path d="M0.0 0h85.3v128a42.7 42.7 0 0 1-85.3 0z" fill="#FF6B2C"/><path d="M85.3 0h85.3v128a42.7 42.7 0 0 1-85.3 0z" fill="#FFF1E2"/><path d="M170.7 0h85.3v128a42.7 42.7 0 0 1-85.3 0z" fill="#FF6B2C"/><path d="M256.0 0h85.3v128a42.7 42.7 0 0 1-85.3 0z" fill="#FFF1E2"/><path d="M341.3 0h85.3v128a42.7 42.7 0 0 1-85.3 0z" fill="#FF6B2C"/><path d="M426.7 0h85.3v128a42.7 42.7 0 0 1-85.3 0z" fill="#FFF1E2"/></g><path d="M67.710693359375 -8.277099609375Q28.216796875 -9.9156494140625 6.4698486328125 12.4698486328125Q-15.277099609375 34.8553466796875 -15.277099609375 70.0721435546875Q-15.277099609375 97.373291015625 0.05419921875 117.30096435546875Q15.385498046875 137.2286376953125 45.048095703125 138.8671875L73.1324462890625 140.8671875Q109.4698486328125 143.2286376953125 126.222900390625 158.7889404296875Q142.9759521484375 174.3492431640625 142.9759521484375 210.1324462890625V621.180908203125Q142.9759521484375 666.5904541015625 166.81927490234375 690.4337768554688Q190.66259765625 714.277099609375 235.0721435546875 714.277099609375Q279.481689453125 714.277099609375 303.0057373046875 690.4337768554688Q326.52978515625 666.5904541015625 326.52978515625 621.180908203125V213.048095703125Q326.52978515625 144.3011474609375 301.79486083984375 96.78912353515625Q277.0599365234375 49.277099609375 227.63226318359375 23.81927490234375Q178.20458984375 -1.6385498046875 103.6263427734375 -6.277099609375Z" fill="#FFF1E2" transform="translate(208.6,437.4) scale(0.3044,-0.3044)"/></svg>